<svg width="17" height="17" viewBox="0 0 17 17" fill="none" xmlns="http://www.w3.org/2000/svg">
<path d="M8.5 0C6.24566 0 4.08365 0.895533 2.48959 2.48959C0.895533 4.08365 0 6.24566 0 8.5C0 10.7543 0.895533 12.9163 2.48959 14.5104C4.08365 16.1045 6.24566 17 8.5 17C10.7543 17 12.9163 16.1045 14.5104 14.5104C16.1045 12.9163 17 10.7543 17 8.5C17 6.24566 16.1045 4.08365 14.5104 2.48959C12.9163 0.895533 10.7543 0 8.5 0V0ZM10.7405 15.4296H10.6746C10.6251 15.4324 10.5756 15.4251 10.529 15.408C10.4825 15.391 10.44 15.3646 10.404 15.3305C10.3708 15.2953 10.3449 15.2539 10.3279 15.2087C10.3108 15.1635 10.303 15.1153 10.3048 15.067V14.071C10.3091 13.7402 10.3119 13.4052 10.3119 13.068C10.3108 12.8215 10.2747 12.5763 10.205 12.3399C10.1388 12.1008 10.0056 11.8857 9.82104 11.7201C10.3147 11.6724 10.8001 11.5603 11.2646 11.3865C11.6565 11.2374 12.0109 11.0044 12.303 10.7036C12.5913 10.4012 12.806 10.0357 12.9299 9.63687C13.0807 9.1485 13.1524 8.63915 13.1424 8.12813C13.1452 7.77132 13.0828 7.41701 12.9583 7.08262C12.8317 6.7456 12.6404 6.43662 12.3951 6.17312C12.4481 6.04023 12.4866 5.90202 12.5099 5.76088C12.5332 5.61921 12.5453 5.47612 12.5453 5.33304C12.5453 5.14887 12.524 4.96471 12.4815 4.7855C12.4429 4.60169 12.3906 4.42103 12.325 4.24504C12.3 4.23527 12.2733 4.23046 12.2464 4.23088H12.1685C12.0055 4.23229 11.8455 4.25921 11.691 4.3095C11.5209 4.35915 11.3546 4.42069 11.1931 4.49367C11.0325 4.56564 10.8762 4.64676 10.7249 4.73662C10.5726 4.82658 10.438 4.913 10.319 4.99304C9.12739 4.66092 7.86765 4.66092 6.67604 4.99304C6.54315 4.9042 6.40805 4.8187 6.27087 4.73662C6.11742 4.64601 5.95845 4.5651 5.79487 4.49437C5.63384 4.41898 5.46681 4.35714 5.2955 4.3095C5.14413 4.25949 4.98599 4.23298 4.82658 4.23088H4.74867C4.72202 4.2305 4.69556 4.23531 4.67075 4.24504C4.60421 4.42128 4.54978 4.60185 4.50783 4.7855C4.46958 4.96542 4.45117 5.14887 4.45046 5.33304C4.45046 5.47612 4.4625 5.61921 4.48658 5.76088C4.50996 5.90183 4.5475 6.03996 4.59992 6.17312C4.35525 6.43697 4.16466 6.74619 4.03892 7.08333C3.91374 7.4176 3.85061 7.7719 3.85262 8.12883C3.84272 8.63712 3.91251 9.14382 4.05946 9.6305C4.18767 10.0293 4.40158 10.3955 4.68562 10.7043C4.97958 11.0033 5.33375 11.2356 5.72404 11.3872C6.18658 11.5642 6.67108 11.6776 7.16408 11.7243C7.02643 11.8491 6.91724 12.002 6.84392 12.1727C6.77417 12.3415 6.72655 12.5187 6.70225 12.6997C6.44235 12.8241 6.15811 12.8895 5.86996 12.891C5.60236 12.9017 5.33825 12.8273 5.11558 12.6785C4.90198 12.5202 4.72108 12.3219 4.58292 12.0948C4.52108 11.9994 4.45193 11.9089 4.37608 11.8242C4.29607 11.7351 4.20785 11.6538 4.11258 11.5813C4.01869 11.5111 3.91576 11.4539 3.80658 11.4113C3.69917 11.3642 3.58316 11.3398 3.46587 11.3397C3.43754 11.3404 3.40921 11.3432 3.38087 11.3468C3.34218 11.3467 3.30363 11.3514 3.26612 11.361C3.23317 11.3696 3.20199 11.384 3.17404 11.4035C3.16133 11.4105 3.15071 11.4207 3.14324 11.4331C3.13578 11.4456 3.13174 11.4598 3.13154 11.4743C3.13452 11.5084 3.14494 11.5414 3.16208 11.571C3.17921 11.6006 3.20264 11.6261 3.23071 11.6457C3.29658 11.6981 3.35113 11.7385 3.39504 11.7668L3.41629 11.7817C3.5105 11.8547 3.60117 11.9333 3.68687 12.0176C3.76621 12.087 3.83775 12.1656 3.89937 12.2513C3.96312 12.3356 4.01837 12.4256 4.063 12.5212C4.11471 12.6161 4.16925 12.7252 4.22662 12.8492C4.35979 13.1849 4.59637 13.469 4.90237 13.6602C5.22325 13.8323 5.58308 13.918 5.94788 13.9088C6.07113 13.9088 6.19508 13.9018 6.31762 13.8876C6.43946 13.8678 6.56058 13.8472 6.68242 13.8231V15.0577C6.68462 15.1075 6.6763 15.1572 6.65799 15.2036C6.63968 15.2499 6.6118 15.2919 6.57616 15.3267C6.54053 15.3615 6.49795 15.3884 6.4512 15.4057C6.40445 15.4229 6.35459 15.4301 6.30487 15.4268H6.26096C4.60915 14.8932 3.20214 13.7873 2.29328 12.3084C1.38442 10.8295 1.03343 9.07471 1.30353 7.35999C1.57363 5.64528 2.44706 4.08333 3.76654 2.95542C5.08602 1.82751 6.76485 1.20776 8.50071 1.20776C10.2366 1.20776 11.9154 1.82751 13.2349 2.95542C14.5544 4.08333 15.4278 5.64528 15.6979 7.35999C15.968 9.07471 15.617 10.8295 14.7081 12.3084C13.7993 13.7873 12.3923 14.8932 10.7405 15.4268V15.4303V15.4296Z" fill="white"/>
</svg>
