<svg width="16" height="15" viewBox="0 0 16 15" fill="none" xmlns="http://www.w3.org/2000/svg">
<path d="M9.92559 1.49751L9.92561 1.49753L15.4257 5.95018C15.4257 5.95019 15.4257 5.9502 15.4257 5.95021C15.4809 5.99491 15.5 6.04773 15.5 6.09374C15.5 6.13984 15.4808 6.1927 15.4257 6.2373C15.4257 6.2373 15.4257 6.2373 15.4257 6.23731L9.92559 10.6904L9.92559 10.6904C9.84471 10.7559 9.73447 10.7682 9.63485 10.726C9.53824 10.685 9.5 10.6172 9.5 10.5469V7.97124V7.46445L8.99326 7.47128C7.76697 7.48782 6.69106 7.57153 5.79023 7.76251C4.8925 7.95283 4.12963 8.2576 3.56524 8.74499C2.37757 9.77061 2.28248 11.3837 2.99904 13.5464C2.98261 13.5561 2.96126 13.5624 2.94037 13.5625C2.92161 13.5626 2.90402 13.558 2.88586 13.5456L2.88585 13.5456C1.61471 12.6789 0.5 11.0342 0.5 9.44314C0.5 8.40454 0.730888 7.60586 1.12334 6.98326C1.51608 6.36021 2.0924 5.87899 2.83874 5.51101C4.35294 4.76443 6.50426 4.51318 9.00537 4.48634L9.5 4.48103V3.98636V1.64106C9.5 1.57117 9.53817 1.50308 9.63495 1.462C9.73445 1.41976 9.84454 1.43189 9.92559 1.49751Z" fill="#5CBE3A" stroke="black"/>
</svg>
